<svg xmlns="http://www.w3.org/2000/svg" xmlns:xlink="http://www.w3.org/1999/xlink" width="87.496" height="66.901" viewBox="0 0 87.496 66.901"><defs><style>.a{fill:url(#a);}.b{fill:#e3ecff;}</style><linearGradient id="a" x1="0.5" y1="1" x2="0.5" gradientUnits="objectBoundingBox"><stop offset="0" stop-color="#3367dd"/><stop offset="1" stop-color="#afc6f8"/></linearGradient></defs><g transform="translate(0 -31)"><g transform="translate(0 31)"><path class="a" d="M71.945,82.267H51.438A2.562,2.562,0,0,1,48.875,79.7V69.45a2.562,2.562,0,0,1,2.563-2.563H54L43.748,53.217,33.495,66.887h2.563a2.562,2.562,0,0,1,2.563,2.563V79.7a2.562,2.562,0,0,1-2.563,2.563H15.551A15.368,15.368,0,0,1,13.108,51.7,23.045,23.045,0,0,1,51.413,36.883a17.944,17.944,0,0,1,22.94,14.812,15.368,15.368,0,0,1-2.408,30.573Z" transform="translate(0 -31)"/></g><g transform="translate(25.804 46.438)"><path class="b" d="M186.373,142.812l-15.38-20.507a2.659,2.659,0,0,0-4.105,0l-15.38,20.507a2.564,2.564,0,0,0,2.053,4.1h5.127v16.22a2.562,2.562,0,0,0,2.563,2.563h15.38a2.562,2.562,0,0,0,2.563-2.563v-16.22h5.127a2.564,2.564,0,0,0,2.053-4.1Zm-9.743,24.861H161.25a2.563,2.563,0,1,0,0,5.127h15.38a2.563,2.563,0,0,0,0-5.127Z" transform="translate(-150.995 -121.337)"/></g></g></svg>