<svg xmlns="http://www.w3.org/2000/svg" width="15" height="8" viewBox="0 0 15 8"><defs><style>.a{fill:#002e96;}</style></defs><g transform="translate(0 -121)"><g transform="translate(-0.001 121)"><g transform="translate(0 0)"><path class="a" d="M14.888,124.7c-.134-.151-3.354-3.7-7.388-3.7S.245,124.552.112,124.7a.448.448,0,0,0,0,.593c.134.151,3.354,3.7,7.388,3.7s7.254-3.553,7.388-3.7A.448.448,0,0,0,14.888,124.7ZM7.5,128.111A3.111,3.111,0,1,1,10.576,125,3.1,3.1,0,0,1,7.5,128.111Z" transform="translate(0.001 -121)"/></g></g><g transform="translate(5.302 122.778)"><g transform="translate(0 0)"><path class="a" d="M183.637,182.333a1.334,1.334,0,0,1,.553-1.082A2.149,2.149,0,0,0,183.2,181a2.222,2.222,0,1,0,2.16,2.6A1.313,1.313,0,0,1,183.637,182.333Z" transform="translate(-181 -181)"/></g></g></g></svg>